<svg width="19" height="25" viewBox="0 0 19 25" fill="none" xmlns="http://www.w3.org/2000/svg">
<path d="M9.5 0C4.26455 0 0 4.32647 0 9.63795C0 11.1264 0.608179 12.7109 1.44355 14.3515C2.27893 15.9923 3.37051 17.6757 4.45684 19.2006C6.62949 22.2502 8.79492 24.6822 8.79492 24.6822C8.884 24.7822 8.99278 24.8622 9.11423 24.917C9.23568 24.9717 9.3671 25 9.5 25C9.6329 25 9.76432 24.9717 9.88577 24.917C10.0072 24.8622 10.116 24.7822 10.2051 24.6822C10.2051 24.6822 12.3705 22.2502 14.5432 19.2006C15.6295 17.6757 16.7211 15.9923 17.5564 14.3515C18.3918 12.7109 19 11.1264 19 9.63795C19 4.32647 14.7354 0 9.5 0ZM9.5 1.92759C13.7086 1.92759 17.1 5.36814 17.1 9.63795C17.1 10.5449 16.6394 11.9588 15.8717 13.4668C15.1039 14.9745 14.058 16.5958 13.0068 18.0712C11.2568 20.5277 10.0387 21.8792 9.5 22.4986C8.9613 21.8792 7.74316 20.5277 5.99316 18.0712C4.94199 16.5958 3.89607 14.9745 3.12832 13.4668C2.36057 11.9588 1.9 10.5449 1.9 9.63795C1.9 5.36814 5.29138 1.92759 9.5 1.92759ZM9.5 4.81897C7.41257 4.81897 5.7 6.5565 5.7 8.67415C5.7 10.792 7.41257 12.5293 9.5 12.5293C11.5874 12.5293 13.3 10.792 13.3 8.67415C13.3 6.5565 11.5874 4.81897 9.5 4.81897ZM9.5 6.74656C10.5606 6.74656 11.4 7.59817 11.4 8.67415C11.4 9.75013 10.5606 10.6017 9.5 10.6017C8.43941 10.6017 7.6 9.75013 7.6 8.67415C7.6 7.59817 8.43941 6.74656 9.5 6.74656Z" fill="#249FE6"/>
<path d="M9.49999 1.92755C5.29137 1.92755 1.89999 5.36811 1.89999 9.63791C1.89999 10.5448 2.36056 11.9588 3.12831 13.4667C3.89606 14.9745 4.94198 16.5957 5.99315 18.0711C7.74315 20.5276 8.96129 21.8792 9.49999 22.4985C10.0387 21.8792 11.2568 20.5276 13.0068 18.0711C14.058 16.5957 15.1039 14.9745 15.8717 13.4667C16.6394 11.9588 17.1 10.5448 17.1 9.63791C17.1 5.36811 13.7086 1.92755 9.49999 1.92755ZM9.49999 4.81893C11.5874 4.81893 13.3 6.55646 13.3 8.67411C13.3 10.792 11.5874 12.5293 9.49999 12.5293C7.41256 12.5293 5.69999 10.792 5.69999 8.67411C5.69999 6.55646 7.41256 4.81893 9.49999 4.81893Z" fill="#C2E4F8"/>
</svg>
