<?xml version="1.0" ?><svg viewBox="0 0 512 512" xmlns="http://www.w3.org/2000/svg"><title/><g id="Car"><path d="M441.5179,226.8645l-26.3-140.2688a17.11,17.11,0,0,0-16.8106-13.9438H113.5928A17.11,17.11,0,0,0,96.7822,86.5957l-26.3,140.2688a55.1171,55.1171,0,0,0-40.58,52.9783V355.75A17.0965,17.0965,0,0,0,47,372.8481H58.4019V389a50.3481,50.3481,0,0,0,100.6962,0V372.8481H352.9019V389a50.3481,50.3481,0,0,0,100.6962,0V372.8481H465A17.0965,17.0965,0,0,0,482.0981,355.75V279.8428A55.1171,55.1171,0,0,0,441.5179,226.8645ZM122.9988,327.25a28.5,28.5,0,1,1,28.5-28.5A28.4993,28.4993,0,0,1,122.9988,327.25Zm-17.301-102.5981,22.0893-117.8038H384.2129l22.0893,117.8038ZM388.9988,327.25a28.5,28.5,0,1,1,28.5-28.5A28.4993,28.4993,0,0,1,388.9988,327.25Z"/></g></svg>