<svg width="16" height="16" viewBox="0 0 16 16" fill="none" xmlns="http://www.w3.org/2000/svg">
<path fill-rule="evenodd" clip-rule="evenodd" d="M9 8C9 7.72 8.89 7.47 8.71 7.29L4.71 3.29C4.61676 3.19676 4.50607 3.1228 4.38425 3.07234C4.26243 3.02188 4.13186 2.99591 4 2.99591C3.86814 2.99591 3.73758 3.02188 3.61575 3.07234C3.49393 3.1228 3.38324 3.19676 3.29 3.29C3.1017 3.47831 2.99591 3.7337 2.99591 4C2.99591 4.2663 3.1017 4.5217 3.29 4.71L6.59 8L3.3 11.29C3.11 11.47 3 11.72 3 12C3.00029 12.198 3.05916 12.3915 3.1692 12.556C3.27925 12.7206 3.43554 12.849 3.61839 12.9249C3.80124 13.0008 4.00246 13.0209 4.19672 12.9827C4.39097 12.9444 4.56957 12.8496 4.71 12.71L8.71 8.71C8.89 8.53 9 8.28 9 8ZM13.71 7.29L9.71 3.29C9.61676 3.19676 9.50607 3.1228 9.38425 3.07234C9.26243 3.02188 9.13186 2.99591 9 2.99591C8.86814 2.99591 8.73757 3.02188 8.61575 3.07234C8.49393 3.1228 8.38324 3.19676 8.29 3.29C8.1017 3.47831 7.99591 3.7337 7.99591 4C7.99591 4.2663 8.1017 4.5217 8.29 4.71L11.59 8L8.3 11.29C8.11 11.47 8 11.72 8 12C8.00029 12.198 8.05916 12.3915 8.1692 12.556C8.27925 12.7206 8.43554 12.849 8.61839 12.9249C8.80124 13.0008 9.00246 13.0209 9.19672 12.9827C9.39097 12.9444 9.56957 12.8496 9.71 12.71L13.71 8.71C13.89 8.53 14 8.28 14 8C14 7.72 13.89 7.47 13.71 7.29Z" fill="#1C96E5"/>
</svg>
